<svg width="64" height="57" viewBox="0 0 64 57" fill="none" xmlns="http://www.w3.org/2000/svg">
<path d="M23.5404 2C26.8049 2 29.9357 3.39625 32.244 5.88159C34.5524 8.36693 35.8492 11.7378 35.8492 15.2526C35.8492 18.7674 34.5524 22.1382 32.244 24.6236C29.9357 27.1089 26.8049 28.5051 23.5404 28.5051C20.2759 28.5051 17.1451 27.1089 14.8368 24.6236C12.5284 22.1382 11.2316 18.7674 11.2316 15.2526C11.2316 11.7378 12.5284 8.36693 14.8368 5.88159C17.1451 3.39625 20.2759 2 23.5404 2ZM19.1458 33.4749H27.935C29.0697 33.4749 30.1852 33.5991 31.2526 33.8165C31.0507 35.7319 31.9642 37.5024 33.349 38.4549C31.7527 39.5524 30.7814 41.7267 31.4257 43.9734C31.8104 45.309 32.3296 46.6135 33.0028 47.8663C33.6759 49.1191 34.4644 50.258 35.3491 51.283C36.8589 53.0328 39.1572 53.1881 40.8496 52.1838V52.277C40.8496 53.2295 41.1093 54.1924 41.6093 54.9999H4.85603C3.27896 55.0103 2 53.6333 2 51.9353C2 41.737 9.67376 33.4749 19.1458 33.4749ZM43.9268 24.5915C43.9268 23.8667 44.3596 23.2145 45.0135 23.0592C46.0232 22.8107 47.081 22.6761 48.158 22.6761C49.235 22.6761 50.2928 22.8107 51.3025 23.0592C51.9564 23.2145 52.3891 23.8667 52.3891 24.5915V27.7597C53.1488 28.1117 53.87 28.5569 54.5336 29.0849L56.928 27.6044C57.5146 27.242 58.2454 27.3248 58.707 27.8529C59.4378 28.6915 60.0821 29.6337 60.6399 30.669C61.1976 31.7044 61.6303 32.7812 61.9381 33.8787C62.14 34.5723 61.8323 35.2971 61.2457 35.6595L58.8416 37.1504C58.8801 37.5645 58.9089 37.989 58.9089 38.4239C58.9089 38.8587 58.8897 39.2729 58.8416 39.6974L61.2457 41.1883C61.8323 41.5507 62.1304 42.2754 61.9381 42.9691C61.6207 44.0666 61.188 45.1433 60.6399 46.1787C60.0917 47.2141 59.4378 48.1562 58.707 48.9949C58.2454 49.5229 57.505 49.6057 56.928 49.2434L54.5336 47.7628C53.87 48.2908 53.1584 48.736 52.3891 49.0881V52.2562C52.3891 52.981 51.9564 53.6333 51.3025 53.7886C50.2928 54.0371 49.235 54.1717 48.158 54.1717C47.081 54.1717 46.0232 54.0371 45.0135 53.7886C44.3596 53.6333 43.9268 52.981 43.9268 52.2562V49.0881C43.1575 48.736 42.4267 48.2908 41.7632 47.7524L39.388 49.233C38.8014 49.5954 38.0705 49.5125 37.609 48.9845C36.8781 48.1459 36.2338 47.2037 35.6761 46.1683C35.1184 45.133 34.6856 44.0562 34.3779 42.9587C34.176 42.265 34.4837 41.5403 35.0703 41.1779L37.4551 39.6974C37.4166 39.2729 37.3878 38.8484 37.3878 38.4135C37.3878 37.9787 37.407 37.5542 37.4551 37.1297L35.0607 35.6491C34.4741 35.2867 34.176 34.562 34.3683 33.8683C34.6856 32.7708 35.1087 31.694 35.6665 30.6587C36.2242 29.6233 36.8685 28.6812 37.5993 27.8425C38.0609 27.3145 38.7918 27.2317 39.3783 27.594L41.7632 29.0746C42.4267 28.5466 43.1575 28.1014 43.9268 27.739V24.5915ZM52.7834 38.4135C52.8119 37.7411 52.7135 37.0695 52.4941 36.4392C52.2748 35.8088 51.939 35.2329 51.5072 34.7463C51.0753 34.2596 50.5563 33.8722 49.9815 33.6075C49.4066 33.3429 48.788 33.2064 48.1628 33.2064C47.5376 33.2064 46.9189 33.3429 46.3441 33.6075C45.7693 33.8722 45.2503 34.2596 44.8184 34.7463C44.3865 35.2329 44.0508 35.8088 43.8314 36.4392C43.6121 37.0695 43.5137 37.7411 43.5422 38.4135C43.5137 39.0859 43.6121 39.7576 43.8314 40.3879C44.0508 41.0182 44.3865 41.5941 44.8184 42.0808C45.2503 42.5675 45.7693 42.9548 46.3441 43.2195C46.9189 43.4841 47.5376 43.6206 48.1628 43.6206C48.788 43.6206 49.4066 43.4841 49.9815 43.2195C50.5563 42.9548 51.0753 42.5675 51.5072 42.0808C51.939 41.5941 52.2748 41.0182 52.4941 40.3879C52.7135 39.7576 52.8119 39.0859 52.7834 38.4135Z" stroke="black" stroke-width="2.5"/>
</svg>
