<svg width="40" height="42" viewBox="0 0 40 42" fill="none" xmlns="http://www.w3.org/2000/svg">
<path d="M17.5 13V12.5H17H14H13.5V13V28V28.5H14H17H17.5V28V13ZM26.5 13V12.5H26H23H22.5V13V28V28.5H23H26H26.5V28V13Z" fill="#3CBA94" stroke="#3CBA94"/>
<path d="M20 5.08929C23.1468 5.08929 26.223 6.02243 28.8395 7.77072C31.456 9.51901 33.4953 12.0039 34.6996 14.9112C35.9038 17.8185 36.2189 21.0176 35.605 24.104C34.9911 27.1904 33.4757 30.0254 31.2506 32.2506C29.0254 34.4757 26.1904 35.9911 23.104 36.605C20.0177 37.2189 16.8185 36.9038 13.9112 35.6996C11.0039 34.4953 8.51902 32.456 6.77073 29.8395C5.02244 27.223 4.08929 24.1468 4.08929 21C4.08929 16.7802 5.7656 12.7333 8.74943 9.74942C11.7333 6.76559 15.7802 5.08929 20 5.08929ZM20 1.625C16.168 1.625 12.422 2.76132 9.23583 4.89028C6.04963 7.01923 3.56629 10.0452 2.09984 13.5855C0.633395 17.1258 0.249705 21.0215 0.997294 24.7799C1.74488 28.5382 3.59017 31.9905 6.29981 34.7002C9.00945 37.4098 12.4618 39.2551 16.2201 40.0027C19.9785 40.7503 23.8742 40.3666 27.4145 38.9002C30.9548 37.4337 33.9808 34.9504 36.1097 31.7642C38.2387 28.578 39.375 24.832 39.375 21C39.375 15.8614 37.3337 10.9333 33.7002 7.2998C30.0667 3.66629 25.1386 1.625 20 1.625Z" fill="#3CBA94" stroke="#3CBA94" stroke-width="0.75"/>
</svg>
