<svg width="33" height="33" viewBox="0 0 33 33" fill="none" xmlns="http://www.w3.org/2000/svg">
<path d="M18.3281 24.4219C18.3281 24.7834 18.2209 25.1369 18.02 25.4375C17.8192 25.7382 17.5336 25.9725 17.1996 26.1108C16.8656 26.2492 16.498 26.2854 16.1434 26.2149C15.7887 26.1443 15.463 25.9702 15.2073 25.7146C14.9517 25.4589 14.7775 25.1331 14.707 24.7785C14.6365 24.4239 14.6727 24.0563 14.811 23.7223C14.9494 23.3882 15.1837 23.1027 15.4844 22.9018C15.785 22.701 16.1384 22.5938 16.5 22.5938C16.9849 22.5938 17.4498 22.7864 17.7927 23.1292C18.1355 23.472 18.3281 23.937 18.3281 24.4219ZM16.5 7.96875C13.1393 7.96875 10.4063 10.4291 10.4063 13.4531V14.0625C10.4063 14.3857 10.5347 14.6957 10.7632 14.9243C10.9918 15.1528 11.3018 15.2812 11.625 15.2812C11.9482 15.2812 12.2582 15.1528 12.4868 14.9243C12.7154 14.6957 12.8438 14.3857 12.8438 14.0625V13.4531C12.8438 11.7773 14.4845 10.4062 16.5 10.4062C18.5155 10.4062 20.1563 11.7773 20.1563 13.4531C20.1563 15.1289 18.5155 16.5 16.5 16.5C16.1768 16.5 15.8668 16.6284 15.6382 16.857C15.4097 17.0855 15.2813 17.3955 15.2813 17.7188V18.9375C15.2813 19.2607 15.4097 19.5707 15.6382 19.7993C15.8668 20.0278 16.1768 20.1562 16.5 20.1562C16.8232 20.1562 17.1332 20.0278 17.3618 19.7993C17.5904 19.5707 17.7188 19.2607 17.7188 18.9375V18.8278C20.4975 18.3175 22.5938 16.1009 22.5938 13.4531C22.5938 10.4291 19.8607 7.96875 16.5 7.96875ZM32.3438 16.5C32.3438 19.6336 31.4145 22.6968 29.6736 25.3023C27.9327 27.9078 25.4582 29.9385 22.5631 31.1377C19.6681 32.3369 16.4824 32.6507 13.409 32.0393C10.3357 31.428 7.51257 29.919 5.29678 27.7032C3.081 25.4874 1.57203 22.6644 0.96069 19.591C0.349356 16.5176 0.663115 13.3319 1.86229 10.4369C3.06147 7.54179 5.0922 5.06734 7.69769 3.3264C10.3032 1.58547 13.3664 0.65625 16.5 0.65625C20.7007 0.660686 24.728 2.33136 27.6983 5.30168C30.6686 8.27199 32.3393 12.2993 32.3438 16.5ZM29.9063 16.5C29.9063 13.8485 29.12 11.2565 27.6469 9.05189C26.1738 6.84724 24.08 5.12893 21.6304 4.11424C19.1807 3.09955 16.4851 2.83406 13.8846 3.35135C11.284 3.86863 8.89526 5.14545 7.02036 7.02035C5.14546 8.89525 3.86864 11.284 3.35135 13.8846C2.83407 16.4851 3.09956 19.1807 4.11425 21.6304C5.12893 24.08 6.84725 26.1738 9.05189 27.6469C11.2565 29.12 13.8485 29.9062 16.5 29.9062C20.0543 29.9022 23.4619 28.4885 25.9752 25.9752C28.4885 23.4619 29.9022 20.0543 29.9063 16.5Z" fill="black"/>
</svg>
