<svg width="18" height="18" viewBox="0 0 18 18" fill="none" xmlns="http://www.w3.org/2000/svg">
<path fill-rule="evenodd" clip-rule="evenodd" d="M8.91667 17.3332C13.5652 17.3332 17.3333 13.5651 17.3333 8.91654C17.3333 4.26803 13.5652 0.499878 8.91667 0.499878C4.26815 0.499878 0.5 4.26802 0.5 8.91654C0.5 13.5651 4.26815 17.3332 8.91667 17.3332ZM16.3333 8.91654C16.3333 13.0128 13.0129 16.3332 8.91667 16.3332C4.82043 16.3332 1.5 13.0128 1.5 8.91654C1.5 4.82031 4.82044 1.49988 8.91667 1.49988C13.0129 1.49988 16.3333 4.82031 16.3333 8.91654ZM8.56327 11.645C8.75854 11.8403 9.07512 11.8403 9.27038 11.645L12.8329 8.08252C13.0281 7.88725 13.0281 7.57067 12.8329 7.37541C12.6376 7.18015 12.321 7.18015 12.1258 7.37541L8.91683 10.5844L5.70788 7.37541C5.51262 7.18015 5.19604 7.18015 5.00077 7.37541C4.80551 7.57067 4.80551 7.88725 5.00077 8.08252L8.56327 11.645Z" fill="#3CBA94"/>
</svg>
