<svg width="70" height="60" viewBox="0 0 70 60" fill="none" xmlns="http://www.w3.org/2000/svg">
<path d="M26.5404 5C29.8049 5 32.9357 6.39625 35.244 8.88159C37.5524 11.3669 38.8492 14.7378 38.8492 18.2526C38.8492 21.7674 37.5524 25.1382 35.244 27.6236C32.9357 30.1089 29.8049 31.5051 26.5404 31.5051C23.2759 31.5051 20.1451 30.1089 17.8368 27.6236C15.5284 25.1382 14.2316 21.7674 14.2316 18.2526C14.2316 14.7378 15.5284 11.3669 17.8368 8.88159C20.1451 6.39625 23.2759 5 26.5404 5ZM22.1458 36.4749H30.935C32.0697 36.4749 33.1852 36.5991 34.2526 36.8165C34.0507 38.7319 34.9642 40.5024 36.349 41.4549C34.7527 42.5524 33.7814 44.7267 34.4257 46.9734C34.8104 48.309 35.3296 49.6135 36.0028 50.8663C36.6759 52.1191 37.4644 53.258 38.3491 54.283C39.8589 56.0328 42.1572 56.1881 43.8496 55.1838V55.277C43.8496 56.2295 44.1093 57.1924 44.6093 57.9999H7.85603C6.27896 58.0103 5 56.6333 5 54.9353C5 44.737 12.6738 36.4749 22.1458 36.4749ZM46.9268 27.5915C46.9268 26.8667 47.3596 26.2145 48.0135 26.0592C49.0232 25.8107 50.081 25.6761 51.158 25.6761C52.235 25.6761 53.2928 25.8107 54.3025 26.0592C54.9564 26.2145 55.3891 26.8667 55.3891 27.5915V30.7597C56.1488 31.1117 56.87 31.5569 57.5336 32.0849L59.928 30.6044C60.5146 30.242 61.2454 30.3248 61.707 30.8529C62.4378 31.6915 63.0821 32.6337 63.6399 33.669C64.1976 34.7044 64.6303 35.7812 64.9381 36.8787C65.14 37.5723 64.8323 38.2971 64.2457 38.6595L61.8416 40.1504C61.8801 40.5645 61.9089 40.989 61.9089 41.4239C61.9089 41.8587 61.8897 42.2729 61.8416 42.6974L64.2457 44.1883C64.8323 44.5507 65.1304 45.2754 64.9381 45.9691C64.6207 47.0666 64.188 48.1433 63.6399 49.1787C63.0917 50.2141 62.4378 51.1562 61.707 51.9949C61.2454 52.5229 60.505 52.6057 59.928 52.2434L57.5336 50.7628C56.87 51.2908 56.1584 51.736 55.3891 52.0881V55.2562C55.3891 55.981 54.9564 56.6333 54.3025 56.7886C53.2928 57.0371 52.235 57.1717 51.158 57.1717C50.081 57.1717 49.0232 57.0371 48.0135 56.7886C47.3596 56.6333 46.9268 55.981 46.9268 55.2562V52.0881C46.1575 51.736 45.4267 51.2908 44.7632 50.7524L42.388 52.233C41.8014 52.5954 41.0705 52.5125 40.609 51.9845C39.8781 51.1459 39.2338 50.2037 38.6761 49.1683C38.1184 48.133 37.6856 47.0562 37.3779 45.9587C37.176 45.265 37.4837 44.5403 38.0703 44.1779L40.4551 42.6974C40.4166 42.2729 40.3878 41.8484 40.3878 41.4135C40.3878 40.9787 40.407 40.5542 40.4551 40.1297L38.0607 38.6491C37.4741 38.2867 37.176 37.562 37.3683 36.8683C37.6856 35.7708 38.1087 34.694 38.6665 33.6587C39.2242 32.6233 39.8685 31.6812 40.5993 30.8425C41.0609 30.3145 41.7918 30.2317 42.3783 30.594L44.7632 32.0746C45.4267 31.5466 46.1575 31.1014 46.9268 30.739V27.5915ZM55.7834 41.4135C55.8119 40.7411 55.7135 40.0695 55.4941 39.4392C55.2748 38.8088 54.939 38.2329 54.5072 37.7463C54.0753 37.2596 53.5563 36.8722 52.9815 36.6075C52.4066 36.3429 51.788 36.2064 51.1628 36.2064C50.5376 36.2064 49.9189 36.3429 49.3441 36.6075C48.7693 36.8722 48.2503 37.2596 47.8184 37.7463C47.3865 38.2329 47.0508 38.8088 46.8314 39.4392C46.6121 40.0695 46.5137 40.7411 46.5422 41.4135C46.5137 42.0859 46.6121 42.7576 46.8314 43.3879C47.0508 44.0182 47.3865 44.5941 47.8184 45.0808C48.2503 45.5675 48.7693 45.9548 49.3441 46.2195C49.9189 46.4841 50.5376 46.6206 51.1628 46.6206C51.788 46.6206 52.4066 46.4841 52.9815 46.2195C53.5563 45.9548 54.0753 45.5675 54.5072 45.0808C54.939 44.5941 55.2748 44.0182 55.4941 43.3879C55.7135 42.7576 55.8119 42.0859 55.7834 41.4135Z" fill="#25282E" stroke="white" stroke-width="2.5"/>
</svg>
