<svg width="18" height="16" viewBox="0 0 18 16" fill="none" xmlns="http://www.w3.org/2000/svg">
<path d="M17.5498 14.4612H16.797L9.76036 3.06385L11.2469 0.545181C11.3288 0.406514 11.2718 0.233181 11.1197 0.158514C10.9677 0.0838476 10.7777 0.135847 10.6944 0.274514L9.40371 2.46118L8.11449 0.274514C8.03117 0.135847 7.84115 0.0838476 7.68913 0.158514C7.53711 0.233181 7.48011 0.406514 7.56196 0.545181L9.04851 3.06385L2.01187 14.4612H1.25909C1.08661 14.4612 0.946289 14.5892 0.946289 14.7465C0.946289 14.9052 1.08661 15.5558 1.25909 15.5558H17.5498C17.7223 15.5558 17.8626 14.9052 17.8626 14.7465C17.8626 14.5892 17.7223 14.4612 17.5498 14.4612Z" fill="#038266"/>
</svg>
