<svg width="14" height="15" viewBox="0 0 14 15" fill="none" xmlns="http://www.w3.org/2000/svg">
<path d="M11.7235 4.36039V7.21639V7.41105C11.7235 7.97239 11.1681 8.42839 10.4854 8.42839H3.7002C3.01759 8.42839 2.46214 7.97239 2.46214 7.41105V7.19505V4.33905V4.14305C2.46214 3.58305 3.01759 3.12705 3.7002 3.12705H10.4854C11.1681 3.12705 11.7235 3.58305 11.7235 4.14305V4.36039ZM10.7675 0.663052H3.32016C1.93154 0.663052 0.80603 1.68972 0.80603 2.95505V11.7311V11.7337V11.7657C0.80603 13.0324 1.93154 14.0591 3.32016 14.0591H10.7675C12.1562 14.0591 13.2817 13.0324 13.2817 11.7657V11.7337C13.2817 11.7324 13.2817 11.7324 13.2817 11.7311V2.95505C13.2817 1.68972 12.1562 0.663052 10.7675 0.663052Z" fill="#C69C6D"/>
</svg>
