<svg width="34" height="30" viewBox="0 0 34 30" fill="none" xmlns="http://www.w3.org/2000/svg">
<path d="M22.2457 8.59102C23.2807 9.36724 24.1207 10.3738 24.6993 11.5309C25.2779 12.688 25.5791 13.964 25.5791 15.2577C25.5791 16.5514 25.2779 17.8273 24.6993 18.9845C24.1207 20.1416 23.2807 21.1481 22.2457 21.9244M26.7457 3.59102C28.4857 4.9971 29.8891 6.77456 30.8532 8.79322C31.8173 10.8119 32.3176 13.0206 32.3176 15.2577C32.3176 17.4948 31.8173 19.7035 30.8532 21.7222C29.8891 23.7408 28.4857 25.5183 26.7457 26.9244M7.24573 20.2577H3.91239C3.47037 20.2577 3.04644 20.0821 2.73388 19.7695C2.42132 19.457 2.24573 19.033 2.24573 18.591V11.9244C2.24573 11.4823 2.42132 11.0584 2.73388 10.7458C3.04644 10.4333 3.47037 10.2577 3.91239 10.2577H7.24573L13.0791 2.75769C13.2247 2.47474 13.4668 2.25322 13.7615 2.13317C14.0563 2.01312 14.3842 2.00245 14.6861 2.10309C14.9881 2.20373 15.244 2.40904 15.4078 2.68192C15.5715 2.9548 15.6323 3.27726 15.5791 3.59102V26.9244C15.6323 27.2381 15.5715 27.5606 15.4078 27.8335C15.244 28.1063 14.9881 28.3116 14.6861 28.4123C14.3842 28.5129 14.0563 28.5022 13.7615 28.3822C13.4668 28.2621 13.2247 28.0406 13.0791 27.7577L7.24573 20.2577Z" stroke="#3CBA94" stroke-width="3" stroke-linecap="round" stroke-linejoin="round"/>
</svg>
