<svg width="35" height="35" viewBox="0 0 35 35" fill="none" xmlns="http://www.w3.org/2000/svg">
<path d="M28.6658 11.8553L20.8382 3.3161C20.7037 3.16867 20.5394 3.05072 20.356 2.96983C20.1727 2.88895 19.9742 2.84692 19.7734 2.84645H9.70115C9.22307 2.84081 8.74856 2.92837 8.3047 3.10413C7.86084 3.27989 7.45634 3.5404 7.11428 3.8708C6.77222 4.2012 6.49931 4.595 6.31114 5.02973C6.12297 5.46445 6.02321 5.93158 6.01758 6.40444V27.7524C6.02321 28.2253 6.12297 28.6924 6.31114 29.1271C6.49931 29.5618 6.77222 29.9556 7.11428 30.286C7.45634 30.6164 7.86084 30.877 8.3047 31.0527C8.74856 31.2285 9.22307 31.316 9.70115 31.3104H25.3563C25.8344 31.316 26.3089 31.2285 26.7528 31.0527C27.1966 30.877 27.6011 30.6164 27.9432 30.286C28.2852 29.9556 28.5582 29.5618 28.7463 29.1271C28.9345 28.6924 29.0343 28.2253 29.0399 27.7524V12.8088C29.039 12.4561 28.9056 12.1163 28.6658 11.8553ZM25.6585 12.8088H19.9892C19.6926 12.7799 19.4193 12.637 19.2282 12.4107C19.0371 12.1844 18.9436 11.893 18.9676 11.5991V5.69284H19.1259L25.6585 12.8088ZM25.3563 28.464H9.70115C9.60096 28.4698 9.50061 28.4559 9.40585 28.4233C9.31109 28.3906 9.22378 28.3397 9.14892 28.2736C9.07406 28.2075 9.01313 28.1275 8.96962 28.038C8.92611 27.9486 8.90088 27.8515 8.89537 27.7524V6.40444C8.90088 6.30533 8.92611 6.20827 8.96962 6.11883C9.01313 6.02938 9.07406 5.94931 9.14892 5.88321C9.22378 5.8171 9.31109 5.76625 9.40585 5.73359C9.50061 5.70092 9.60096 5.68707 9.70115 5.69284H16.0898V11.5991C16.0666 12.6475 16.4636 13.6624 17.1941 14.4223C17.9247 15.1822 18.9295 15.6254 19.9892 15.6552H26.1621V27.7524C26.1566 27.8515 26.1314 27.9486 26.0878 28.038C26.0443 28.1275 25.9834 28.2075 25.9086 28.2736C25.8337 28.3397 25.7464 28.3906 25.6516 28.4233C25.5569 28.4559 25.4565 28.4698 25.3563 28.464Z" fill="#3CBA94"/>
</svg>
