<svg width="23" height="19" viewBox="0 0 23 19" fill="none" xmlns="http://www.w3.org/2000/svg">
<path d="M7.72019 14.9674L2.80834 9.44386L2.80831 9.44382C2.56268 9.16766 2.2161 8.99936 1.84043 8.99936C1.46476 8.99936 1.11818 9.16766 0.872553 9.44382C0.62862 9.71808 0.5 10.0787 0.5 10.4443C0.5 10.8098 0.62862 11.1705 0.872553 11.4447L6.75211 18.0551C6.75217 18.0552 6.75223 18.0553 6.75229 18.0553C6.87358 18.1918 7.0208 18.3036 7.18729 18.3812C7.3541 18.459 7.53538 18.5 7.72017 18.5C7.90496 18.5 8.08623 18.459 8.25304 18.3812C8.41954 18.3036 8.56676 18.1918 8.68804 18.0553C8.68811 18.0553 8.68817 18.0552 8.68823 18.0551L22.1274 2.94534C22.3714 2.67109 22.5 2.31043 22.5 1.9449C22.5 1.57937 22.3714 1.21871 22.1274 0.944459C21.8818 0.668292 21.5352 0.5 21.1596 0.5C20.7839 0.5 20.4373 0.668292 20.1917 0.944457L20.1917 0.944473L7.72019 14.9674Z" fill="#3CBA94" stroke="#3CBA94"/>
</svg>
