<svg width="20" height="20" viewBox="0 0 20 20" fill="none" xmlns="http://www.w3.org/2000/svg">
<path d="M11.7465 9.51039L18.5576 2.7151C18.8559 2.41683 19.0235 2.01228 19.0235 1.59047C19.0235 1.16865 18.8559 0.764107 18.5576 0.465837C18.2594 0.167567 17.8548 0 17.433 0C17.0112 0 16.6067 0.167567 16.3084 0.465837L9.5131 7.27697L2.7178 0.465837C2.41953 0.167567 2.01499 -3.14279e-09 1.59317 0C1.17135 3.14279e-09 0.76681 0.167567 0.46854 0.465837C0.17027 0.764107 0.00270323 1.16865 0.00270323 1.59047C0.00270323 2.01228 0.17027 2.41683 0.46854 2.7151L7.27968 9.51039L0.46854 16.3057C0.320076 16.4529 0.202237 16.6281 0.12182 16.8212C0.041403 17.0142 0 17.2212 0 17.4303C0 17.6394 0.041403 17.8465 0.12182 18.0395C0.202237 18.2325 0.320076 18.4077 0.46854 18.5549C0.615792 18.7034 0.790982 18.8213 0.984006 18.9017C1.17703 18.9821 1.38406 19.0235 1.59317 19.0235C1.80227 19.0235 2.00931 18.9821 2.20233 18.9017C2.39536 18.8213 2.57055 18.7034 2.7178 18.5549L9.5131 11.7438L16.3084 18.5549C16.4556 18.7034 16.6308 18.8213 16.8239 18.9017C17.0169 18.9821 17.2239 19.0235 17.433 19.0235C17.6421 19.0235 17.8492 18.9821 18.0422 18.9017C18.2352 18.8213 18.4104 18.7034 18.5576 18.5549C18.7061 18.4077 18.824 18.2325 18.9044 18.0395C18.9848 17.8465 19.0262 17.6394 19.0262 17.4303C19.0262 17.2212 18.9848 17.0142 18.9044 16.8212C18.824 16.6281 18.7061 16.4529 18.5576 16.3057L11.7465 9.51039Z" fill="#231F20"/>
</svg>
