<svg width="40" height="42" viewBox="0 0 40 42" fill="none" xmlns="http://www.w3.org/2000/svg">
<path d="M6.10576 36.1051C4.19556 34.1679 2.67192 31.8506 1.62374 29.2885C0.575556 26.7265 0.0238315 23.9708 0.000755135 21.1825C-0.0223212 18.3941 0.483713 15.6288 1.48933 13.048C2.49495 10.4672 3.98001 8.1225 5.85786 6.15076C7.73572 4.17901 9.96876 2.6197 12.4267 1.5638C14.8846 0.507898 17.5182 -0.0234373 20.1738 0.000792892C22.8294 0.025023 25.4538 0.604334 27.8939 1.70492C30.3339 2.80551 32.5408 4.40534 34.3858 6.41105C38.0289 10.3717 40.0448 15.6763 39.9992 21.1825C39.9537 26.6886 37.8503 31.9557 34.1421 35.8492C30.434 39.7428 25.4177 41.9514 20.1738 41.9992C14.9299 42.0471 9.87781 39.9304 6.10576 36.1051ZM31.5658 33.1441C34.568 29.9917 36.2547 25.7162 36.2547 21.2581C36.2547 16.7999 34.568 12.5244 31.5658 9.37205C28.5635 6.21969 24.4916 4.44871 20.2458 4.44871C15.9999 4.44871 11.928 6.21969 8.92576 9.37205C5.92351 12.5244 4.23687 16.7999 4.23687 21.2581C4.23687 25.7162 5.92351 29.9917 8.92576 33.1441C11.928 36.2964 15.9999 38.0674 20.2458 38.0674C24.4916 38.0674 28.5635 36.2964 31.5658 33.1441ZM14.2458 12.8581L30.2458 21.2581L14.2458 29.6581V12.8581Z" fill="#3CBA94"/>
</svg>
