<?xml version="1.0" standalone="no"?>
<!DOCTYPE svg PUBLIC "-//W3C//DTD SVG 20010904//EN"
 "http://www.w3.org/TR/2001/REC-SVG-20010904/DTD/svg10.dtd">
<svg version="1.0" xmlns="http://www.w3.org/2000/svg"
 width="120.000000pt" height="112.000000pt" viewBox="0 0 120.000000 112.000000"
 preserveAspectRatio="xMidYMid meet">

<g transform="translate(0.000000,112.000000) scale(0.100000,-0.100000)"
fill="#000000" stroke="none">
<path d="M364 1081 c-54 -25 -111 -83 -138 -140 -30 -66 -29 -189 2 -252 51
-103 135 -158 243 -159 148 0 257 108 267 265 10 174 -105 305 -267 305 -43 0
-81 -7 -107 -19z m224 -64 c55 -36 93 -102 99 -174 13 -148 -80 -263 -215
-263 -64 0 -98 13 -141 53 -100 95 -106 257 -14 352 51 52 86 66 164 62 52 -2
75 -8 107 -30z"/>
<path d="M860 641 c-46 -15 -85 -39 -116 -73 -54 -57 -69 -95 -69 -178 0 -83
15 -121 69 -178 53 -57 101 -77 186 -77 57 0 84 5 115 22 47 25 95 74 121 123
26 49 26 171 0 220 -26 49 -74 98 -121 122 -43 22 -144 33 -185 19z m141 -42
c93 -32 155 -126 147 -224 -10 -122 -111 -211 -230 -203 -191 13 -277 240
-141 375 58 59 144 79 224 52z"/>
<path d="M950 425 l-74 -75 -26 25 c-26 25 -27 25 -43 7 -16 -17 -14 -21 28
-62 l45 -44 95 94 c89 88 93 95 78 112 -9 10 -19 18 -22 18 -4 0 -40 -34 -81
-75z"/>
<path d="M420 471 c-136 -6 -148 -8 -198 -35 -116 -64 -192 -183 -200 -313 -4
-67 -2 -76 18 -98 l23 -25 404 0 c381 0 403 1 395 17 -5 10 -12 34 -16 54 -5
30 -13 39 -47 54 -22 10 -60 41 -84 67 -51 57 -70 121 -63 216 5 66 -3 74 -62
70 -14 -1 -90 -4 -170 -7z m182 -118 c7 -118 67 -216 161 -264 77 -40 52 -44
-321 -47 l-351 -2 -15 22 c-11 18 -12 35 -6 75 23 141 127 258 251 282 24 5
96 9 160 10 l116 1 5 -77z"/>
</g>
</svg>
