<svg width="60" height="60" viewBox="0 0 60 60" fill="none" xmlns="http://www.w3.org/2000/svg">
<path d="M17.8705 22.4352L18.9209 22.7187L18.4519 21.737C17.4856 19.714 16.9467 17.4452 16.9467 15C16.9467 6.97722 22.8683 0.5 29.9999 0.5C37.1315 0.5 43.0531 6.97722 43.0531 15L43.0531 15.0033C43.0685 17.3214 42.5753 19.6072 41.618 21.664L41.1671 22.6325L42.1996 22.3582C46.2433 21.284 51.2126 20.5 57.1063 20.5H59.3743L51.6942 54.5H50.3297C42.5855 54.5 37.79 55.7277 34.966 56.881C33.9661 57.2756 33.0097 57.7912 32.1143 58.4179L32.1143 58.4178L32.109 58.4217C31.8593 58.6014 31.7235 58.695 31.6523 58.7425C31.63 58.7574 31.615 58.7671 31.6056 58.7731L31.5231 58.8102L31.4486 58.9018L30.9616 59.5H29.0364L28.554 58.9051L28.4825 58.8169L28.4015 58.7784C28.4013 58.7783 28.4011 58.7782 28.4009 58.7781C28.3913 58.772 28.3753 58.7615 28.3505 58.7448C28.2786 58.6965 28.1425 58.602 27.8939 58.4223L27.8917 58.4207C27.3609 58.0414 26.4554 57.4639 25.0371 56.8824L25.0365 56.8821C22.2128 55.7285 17.4168 54.5 9.67008 54.5H8.30556L0.625419 20.5H2.89349C8.80892 20.5 13.7865 21.3331 17.8705 22.4352ZM42.3286 21.2909C43.1484 19.3214 43.5675 17.1737 43.5531 15L42.6918 21.7143C42.6376 21.8389 42.5819 21.9628 42.5246 22.086L42.0713 21.875L41.9429 21.3918C42.0706 21.3578 42.1992 21.3242 42.3286 21.2909ZM5.88412 24.8132L5.22458 24.7776L5.36926 25.422L10.9464 50.2645L11.0315 50.6438L11.4201 50.6548C18.3535 50.8512 23.3002 51.8977 26.2775 53.1168C26.6152 53.2585 26.8818 53.3977 27.1644 53.5452C27.2772 53.604 27.3925 53.6642 27.5159 53.7265L28.241 54.092V53.28V31.405V31.1452L28.0284 30.9958C27.1519 30.3802 25.6288 29.3973 22.5671 28.1329C18.7454 26.5519 12.9526 25.1956 5.88412 24.8132ZM54.6283 25.422L54.7728 24.7778L54.1135 24.8132C46.9605 25.198 41.158 26.5515 37.362 28.1331C34.3596 29.3783 32.8444 30.3722 31.9673 31.0012L31.7587 31.1508V31.4075V53.2825V54.099L32.486 53.7279C32.598 53.6707 32.7036 53.6153 32.8068 53.5611C33.0997 53.4073 33.3734 53.2636 33.7195 53.1195C36.6992 51.9003 41.6461 50.8513 48.5795 50.6573L48.9682 50.6464L49.0534 50.267L54.6283 25.422ZM39.5353 15C39.5353 9.21528 35.344 4.5 29.9999 4.5C24.6558 4.5 20.4644 9.21528 20.4644 15C20.4644 20.7847 24.6558 25.5 29.9999 25.5C35.344 25.5 39.5353 20.7847 39.5353 15Z" fill="white" stroke="#25282E"/>
</svg>
