<svg width="16" height="12" viewBox="0 0 16 12" fill="none" xmlns="http://www.w3.org/2000/svg">
<path fill-rule="evenodd" clip-rule="evenodd" d="M4.8734 8.25291H0.477483C0.24361 8.25291 0.0535889 8.34758 0.0535889 8.46491V11.5342C0.0535889 11.6516 0.24361 11.7462 0.477483 11.7462H4.8734H6.82566H11.778H12.1907H15.3664C15.4907 11.7462 15.5901 11.6516 15.5901 11.5342V8.46491C15.5901 8.34758 15.4907 8.25291 15.3664 8.25291H12.1907H11.778H6.82566H4.8734ZM0.261151 7.69263H7.3051C7.41912 7.69263 7.5112 7.60596 7.5112 7.49796V4.67529C7.5112 4.56729 7.41912 4.48063 7.3051 4.48063H0.261151C0.147138 4.48063 0.0535889 4.56729 0.0535889 4.67529V7.49796C0.0535889 7.60596 0.147138 7.69263 0.261151 7.69263ZM15.3754 4.4805H8.48342C8.36356 4.4805 8.26709 4.56717 8.26709 4.67517V7.49784C8.26709 7.60584 8.36356 7.6925 8.48342 7.6925H15.3754C15.4938 7.6925 15.5902 7.60584 15.5902 7.49784V4.67517C15.5902 4.56717 15.4938 4.4805 15.3754 4.4805ZM7.43083 0.417858H11.778H12.6219H15.3664C15.4907 0.417858 15.5901 0.511191 15.5901 0.625858V3.63386C15.5901 3.74852 15.4907 3.84186 15.3664 3.84186H12.6219H11.778H4.88802C4.88442 3.84186 4.88085 3.84181 4.87729 3.84171H0.513904C0.259567 3.84171 0.0534668 3.74837 0.0534668 3.63371V0.625706C0.0534668 0.511039 0.259567 0.417706 0.513904 0.417706H7.41315C7.41907 0.417706 7.42496 0.417757 7.43083 0.417858Z" fill="#E84D14"/>
</svg>
