<svg width="18" height="16" viewBox="0 0 18 16" fill="none" xmlns="http://www.w3.org/2000/svg">
<path fill-rule="evenodd" clip-rule="evenodd" d="M0.99353 7.84025C0.99353 11.9509 4.60394 15.2936 9.04021 15.2936C13.4779 15.2936 17.0869 11.9509 17.0869 7.84025C17.0869 3.73091 13.4779 0.386913 9.04021 0.386913C4.60394 0.386913 0.99353 3.73091 0.99353 7.84025ZM4.62002 7.84025C4.62002 5.58291 6.60501 3.74691 9.04021 3.74691C11.4783 3.74691 13.4604 5.58291 13.4604 7.84025C13.4604 10.0989 11.4783 11.9349 9.04021 11.9349C6.60501 11.9349 4.62002 10.0989 4.62002 7.84025ZM10.9813 7.84051C10.9813 8.83385 10.113 9.63785 9.04014 9.63785C7.96871 9.63785 7.099 8.83385 7.099 7.84051C7.099 6.84851 7.96871 6.04451 9.04014 6.04451C10.113 6.04451 10.9813 6.84851 10.9813 7.84051Z" fill="#14569D"/>
</svg>
