<svg width="70" height="64" viewBox="0 0 70 64" fill="none" xmlns="http://www.w3.org/2000/svg">
<path d="M67.0296 57.3732H64.0926L36.6387 13.0584L42.4385 3.26546C42.7579 2.7263 42.5355 2.05235 41.9424 1.76203C41.3493 1.47172 40.6079 1.6739 40.2828 2.21306L35.2472 10.7152L30.2172 2.21306C29.8921 1.6739 29.1507 1.47172 28.5576 1.76203C27.9645 2.05235 27.7421 2.7263 28.0615 3.26546L33.8613 13.0584L6.40744 57.3732H3.47043C2.79748 57.3732 2.25 57.8708 2.25 58.4826C2.25 59.0995 2.79748 61.6294 3.47043 61.6294H67.0296C67.7025 61.6294 68.25 59.0995 68.25 58.4826C68.25 57.8708 67.7025 57.3732 67.0296 57.3732Z" stroke="#3CBA94" stroke-width="3"/>
</svg>
