<svg width="45" height="44" viewBox="0 0 45 44" fill="none" xmlns="http://www.w3.org/2000/svg">
<path d="M22.4965 3.66675C18.8305 3.66675 15.2468 4.74198 12.1987 6.75647C9.15054 8.77097 6.77479 11.6342 5.37188 14.9842C3.96897 18.3342 3.6019 22.0204 4.3171 25.5767C5.0323 29.1331 6.79764 32.3997 9.38988 34.9637C11.9821 37.5277 15.2848 39.2738 18.8804 39.9811C22.4759 40.6885 26.2028 40.3255 29.5897 38.9379C32.9767 37.5503 35.8715 35.2004 37.9082 32.1855C39.9449 29.1706 41.032 25.6261 41.032 22.0001C41.032 19.5925 40.5526 17.2085 39.6211 14.9842C38.6896 12.7599 37.3243 10.7389 35.6031 9.03646C33.8819 7.33405 31.8386 5.98363 29.5897 5.06229C27.3409 4.14095 24.9306 3.66675 22.4965 3.66675ZM22.4965 36.6668C19.5637 36.6668 16.6968 35.8066 14.2583 34.195C11.8197 32.5834 9.91913 30.2928 8.7968 27.6128C7.67447 24.9328 7.38082 21.9838 7.95298 19.1388C8.52514 16.2937 9.93741 13.6804 12.0112 11.6292C14.085 9.57801 16.7272 8.18115 19.6036 7.61523C22.48 7.04931 25.4615 7.33976 28.1711 8.44985C30.8806 9.55993 33.1965 11.4398 34.8259 13.8517C36.4552 16.2636 37.3249 19.0993 37.3249 22.0001C37.3249 25.8899 35.7626 29.6205 32.9818 32.371C30.2009 35.1215 26.4292 36.6668 22.4965 36.6668Z" fill="#3CBA94"/>
<path d="M23.1269 13.6585C22.6727 13.2446 22.1055 12.9717 21.4959 12.8739C20.8862 12.7761 20.261 12.8577 19.6978 13.1085C19.1511 13.3273 18.6827 13.7022 18.3526 14.1856C18.0224 14.6689 17.8454 15.2386 17.8442 15.8219V28.1785C17.8454 28.7618 18.0224 29.3315 18.3526 29.8148C18.6827 30.2981 19.1511 30.6731 19.6978 30.8919C20.0996 31.0721 20.5355 31.1658 20.9767 31.1669C21.7718 31.1634 22.5375 30.8696 23.1269 30.3419L29.9109 24.1635C30.2143 23.8887 30.4566 23.5545 30.6223 23.182C30.7881 22.8096 30.8737 22.4071 30.8737 22.0002C30.8737 21.5933 30.7881 21.1908 30.6223 20.8184C30.4566 20.4459 30.2143 20.1117 29.9109 19.8369L23.1269 13.6585ZM21.5699 26.7669V17.2335L26.7784 22.0002L21.5699 26.7669Z" fill="#3CBA94"/>
</svg>
