<svg width="60" height="60" viewBox="0 0 60 60" fill="none" xmlns="http://www.w3.org/2000/svg">
<path d="M17.8706 22.4352L18.9211 22.7187L18.4521 21.737C17.4857 19.714 16.9468 17.4452 16.9468 15C16.9468 6.97722 22.8684 0.5 30 0.5C37.1316 0.5 43.0532 6.97722 43.0532 15L43.0532 15.0033C43.0686 17.3214 42.5754 19.6072 41.6181 21.664L41.1673 22.6325L42.1998 22.3582C46.2434 21.284 51.2127 20.5 57.1064 20.5H59.3745L51.6943 54.5H50.3298C42.5856 54.5 37.7901 55.7277 34.9661 56.881C33.9662 57.2756 33.0099 57.7912 32.1145 58.4179L32.1144 58.4178L32.1091 58.4217C31.8594 58.6014 31.7236 58.695 31.6524 58.7425C31.6301 58.7574 31.6151 58.7671 31.6057 58.7731L31.5233 58.8102L31.4487 58.9018L30.9618 59.5H29.0366L28.5542 58.9051L28.4827 58.8169L28.4016 58.7784C28.4014 58.7783 28.4012 58.7782 28.401 58.7781C28.3914 58.772 28.3754 58.7615 28.3506 58.7448C28.2787 58.6965 28.1426 58.602 27.894 58.4223L27.8918 58.4207C27.361 58.0414 26.4555 57.4639 25.0372 56.8824L25.0366 56.8821C22.213 55.7285 17.4169 54.5 9.67021 54.5H8.30569L0.625541 20.5H2.89361C8.80904 20.5 13.7867 21.3331 17.8706 22.4352ZM42.3287 21.2909C43.1486 19.3214 43.5676 17.1737 43.5532 15L42.692 21.7143C42.6378 21.8389 42.582 21.9628 42.5247 22.086L42.0714 21.875L41.943 21.3918C42.0707 21.3578 42.1993 21.3242 42.3287 21.2909ZM5.88425 24.8132L5.2247 24.7776L5.36938 25.422L10.9465 50.2645L11.0317 50.6438L11.4202 50.6548C18.3536 50.8512 23.3003 51.8977 26.2776 53.1168C26.6154 53.2585 26.882 53.3977 27.1645 53.5452C27.2773 53.604 27.3926 53.6642 27.516 53.7265L28.2411 54.092V53.28V31.405V31.1452L28.0285 30.9958C27.1521 30.3802 25.6289 29.3973 22.5672 28.1329C18.7455 26.5519 12.9527 25.1956 5.88425 24.8132ZM54.6284 25.422L54.7729 24.7778L54.1136 24.8132C46.9606 25.198 41.1581 26.5515 37.3621 28.1331C34.3597 29.3783 32.8445 30.3722 31.9675 31.0012L31.7589 31.1508V31.4075V53.2825V54.099L32.4861 53.7279C32.5981 53.6707 32.7037 53.6153 32.807 53.5611C33.0998 53.4073 33.3735 53.2636 33.7196 53.1195C36.6993 51.9003 41.6462 50.8513 48.5796 50.6573L48.9683 50.6464L49.0535 50.267L54.6284 25.422ZM39.5355 15C39.5355 9.21528 35.3441 4.5 30 4.5C24.6559 4.5 20.4645 9.21528 20.4645 15C20.4645 20.7847 24.6559 25.5 30 25.5C35.3441 25.5 39.5355 20.7847 39.5355 15Z" fill="#1D1D1B" stroke="white"/>
</svg>
