<?xml version="1.0" encoding="utf-8"?>
<!-- Generator: Adobe Illustrator 27.7.0, SVG Export Plug-In . SVG Version: 6.00 Build 0)  -->
<svg version="1.1" id="Слой_1" xmlns="http://www.w3.org/2000/svg" xmlns:xlink="http://www.w3.org/1999/xlink" x="0px" y="0px"
	 viewBox="0 0 120 112" style="enable-background:new 0 0 120 112;" xml:space="preserve">
<style type="text/css">
	.st0{fill:#FFFFFF;}
</style>
<g transform="translate(0.000000,112.000000) scale(0.100000,-0.100000)">
	<path class="st0" d="M364,1081c-54-25-111-83-138-140c-30-66-29-189,2-252c51-103,135-158,243-159c148,0,257,108,267,265
		c10,174-105,305-267,305C428,1100,390,1093,364,1081z M588,1017c55-36,93-102,99-174c13-148-80-263-215-263c-64,0-98,13-141,53
		c-100,95-106,257-14,352c51,52,86,66,164,62C533,1045,556,1039,588,1017z"/>
	<path class="st0" d="M860,641c-46-15-85-39-116-73c-54-57-69-95-69-178s15-121,69-178c53-57,101-77,186-77c57,0,84,5,115,22
		c47,25,95,74,121,123s26,171,0,220s-74,98-121,122C1002,644,901,655,860,641z M1001,599c93-32,155-126,147-224
		c-10-122-111-211-230-203c-191,13-277,240-141,375C835,606,921,626,1001,599z"/>
	<path class="st0" d="M950,425l-74-75l-26,25c-26,25-27,25-43,7c-16-17-14-21,28-62l45-44l95,94c89,88,93,95,78,112
		c-9,10-19,18-22,18C1027,500,991,466,950,425z"/>
	<path class="st0" d="M420,471c-136-6-148-8-198-35C106,372,30,253,22,123c-4-67-2-76,18-98L63,0h404c381,0,403,1,395,17
		c-5,10-12,34-16,54c-5,30-13,39-47,54c-22,10-60,41-84,67c-51,57-70,121-63,216c5,66-3,74-62,70C576,477,500,474,420,471z M602,353
		c7-118,67-216,161-264c77-40,52-44-321-47L91,40L76,62c-11,18-12,35-6,75c23,141,127,258,251,282c24,5,96,9,160,10l116,1L602,353z"
		/>
</g>
</svg>
