<svg width="21" height="21" viewBox="0 0 21 21" fill="none" xmlns="http://www.w3.org/2000/svg">
<path d="M9.00027 15.1438L4.5 10.1432L5.99973 8.47713L9.00027 11.8093L14.9992 5.1438L16.5 6.81105L9.00027 15.1414V15.1438Z" fill="#3CBA94"/>
<path fill-rule="evenodd" clip-rule="evenodd" d="M0.5 10.5C0.5 4.97727 4.97727 0.5 10.5 0.5C16.0227 0.5 20.5 4.97727 20.5 10.5C20.5 16.0227 16.0227 20.5 10.5 20.5C4.97727 20.5 0.5 16.0227 0.5 10.5ZM10.5 18.6818C9.42555 18.6818 8.36162 18.4702 7.36895 18.059C6.37629 17.6478 5.47433 17.0452 4.71458 16.2854C3.95483 15.5257 3.35216 14.6237 2.94099 13.631C2.52981 12.6384 2.31818 11.5745 2.31818 10.5C2.31818 9.42555 2.52981 8.36162 2.94099 7.36895C3.35216 6.37629 3.95483 5.47433 4.71458 4.71458C5.47433 3.95483 6.37629 3.35216 7.36895 2.94099C8.36162 2.52981 9.42555 2.31818 10.5 2.31818C12.67 2.31818 14.751 3.18019 16.2854 4.71458C17.8198 6.24897 18.6818 8.33005 18.6818 10.5C18.6818 12.67 17.8198 14.751 16.2854 16.2854C14.751 17.8198 12.67 18.6818 10.5 18.6818Z" fill="#3CBA94"/>
</svg>
