<?xml version="1.0" standalone="no"?>
<!DOCTYPE svg PUBLIC "-//W3C//DTD SVG 20010904//EN"
 "http://www.w3.org/TR/2001/REC-SVG-20010904/DTD/svg10.dtd">
<svg version="1.0" xmlns="http://www.w3.org/2000/svg"
 width="1072.000000pt" height="1072.000000pt" viewBox="0 0 1072.000000 1072.000000"
 preserveAspectRatio="xMidYMid meet">
<metadata>
Created by potrace 1.14, written by Peter Selinger 2001-2017
</metadata>
<g transform="translate(0.000000,1072.000000) scale(0.100000,-0.100000)"
fill="#000000" stroke="none">
<path d="M4253 10124 c-37 -16 -105 -83 -97 -95 3 -5 1 -9 -4 -9 -5 0 -9 -24
-9 -53 0 -59 -2 -55 131 -279 44 -73 84 -143 90 -155 6 -13 14 -23 19 -23 4 0
7 -4 7 -10 0 -5 25 -50 55 -100 30 -50 55 -95 55 -100 0 -6 5 -10 10 -10 6 0
10 -5 10 -11 0 -6 9 -24 21 -40 11 -16 17 -29 12 -29 -4 0 -3 -4 3 -8 6 -4 26
-33 45 -65 19 -32 39 -66 44 -76 6 -9 32 -55 60 -101 27 -47 52 -87 55 -90 3
-3 11 -16 17 -30 7 -14 24 -43 37 -65 48 -78 76 -128 76 -136 0 -5 4 -9 8 -9
4 0 18 -19 30 -42 12 -24 32 -60 44 -80 13 -20 44 -73 71 -117 l47 -81 -35
-54 c-19 -30 -35 -59 -35 -65 0 -5 -4 -11 -8 -13 -5 -1 -28 -34 -51 -73 -77
-129 -179 -290 -192 -305 -8 -8 -12 -15 -9 -15 3 0 -11 -25 -30 -55 -19 -30
-40 -65 -47 -78 -7 -13 -21 -35 -33 -49 -11 -14 -20 -32 -20 -39 0 -8 -4 -14
-9 -14 -5 0 -14 -13 -21 -30 -7 -16 -16 -30 -21 -30 -5 0 -9 -6 -9 -14 0 -8
-6 -21 -12 -28 -17 -18 -36 -48 -47 -73 -5 -11 -24 -43 -42 -70 -19 -28 -39
-60 -46 -70 -69 -113 -164 -266 -208 -335 -30 -47 -58 -92 -62 -100 -5 -9 -51
-84 -103 -168 -52 -83 -100 -160 -105 -169 -6 -10 -23 -37 -38 -60 -15 -24
-27 -45 -27 -48 0 -3 -5 -11 -10 -18 -24 -28 -59 -87 -52 -87 4 0 -1 -5 -10
-11 -10 -5 -18 -14 -18 -19 0 -5 -43 -78 -95 -161 -52 -83 -95 -156 -95 -160
0 -5 -4 -9 -8 -9 -5 0 -17 -18 -27 -40 -10 -22 -22 -40 -27 -40 -5 0 -6 -4 -3
-10 3 -5 1 -10 -4 -10 -6 0 -11 -6 -11 -13 0 -8 -9 -22 -20 -32 -10 -9 -18
-20 -18 -24 1 -3 -14 -31 -33 -61 -80 -122 -93 -145 -91 -152 1 -5 -3 -8 -8
-8 -6 0 -10 -4 -10 -9 0 -5 -18 -37 -40 -70 -22 -33 -40 -64 -40 -70 0 -5 -4
-11 -8 -13 -5 -1 -23 -28 -40 -59 -18 -31 -39 -62 -47 -69 -8 -7 -12 -16 -9
-21 3 -5 2 -9 -3 -9 -4 0 -17 -18 -27 -40 -11 -22 -23 -40 -28 -40 -4 0 -8 -4
-8 -10 0 -5 -31 -59 -70 -120 -38 -60 -67 -110 -65 -110 3 0 -2 -8 -11 -17
-22 -25 -204 -321 -204 -332 0 -5 -4 -11 -8 -13 -4 -1 -21 -25 -37 -53 -15
-27 -31 -52 -34 -55 -4 -3 -15 -22 -26 -42 -11 -21 -23 -38 -26 -38 -4 0 -10
-11 -13 -25 -4 -14 -11 -25 -16 -25 -6 0 -10 -6 -10 -13 0 -7 -7 -22 -15 -32
-34 -45 -75 -111 -75 -122 0 -7 -4 -13 -10 -13 -5 0 -10 -7 -10 -15 0 -8 -4
-15 -9 -15 -5 0 -13 -10 -17 -22 -4 -13 -17 -37 -30 -54 -13 -17 -24 -36 -24
-42 0 -7 -4 -12 -10 -12 -5 0 -10 -7 -10 -15 0 -8 -5 -15 -11 -15 -5 0 -7 -4
-4 -10 3 -5 2 -10 -2 -10 -5 0 -22 -25 -38 -55 -17 -30 -33 -55 -37 -55 -5 0
-8 -4 -8 -10 0 -5 -21 -42 -47 -82 -25 -40 -66 -107 -91 -148 -24 -41 -48 -78
-54 -81 -5 -3 -10 -10 -10 -15 0 -5 -15 -31 -32 -59 -18 -27 -45 -72 -61 -99
-17 -26 -42 -67 -57 -90 -15 -22 -32 -50 -38 -61 -16 -30 -31 -55 -107 -172
-18 -28 -33 -56 -33 -61 0 -6 -4 -12 -8 -14 -5 -1 -32 -43 -62 -93 -60 -100
-95 -154 -110 -172 -6 -7 -8 -13 -5 -13 4 0 -7 -19 -23 -43 -48 -67 -182 -288
-182 -298 0 -5 -4 -9 -9 -9 -5 0 -16 -12 -23 -28 -8 -15 -34 -60 -59 -100 -24
-40 -48 -81 -54 -90 -5 -10 -19 -31 -30 -47 -12 -17 -27 -42 -35 -58 -7 -15
-17 -27 -22 -27 -4 0 -8 -6 -8 -12 0 -11 -40 -76 -118 -194 -6 -10 -18 -30
-24 -44 -7 -14 -19 -31 -26 -39 -8 -8 -18 -24 -23 -35 -9 -22 -30 -57 -39 -66
-3 -3 -11 -15 -17 -27 -7 -13 -19 -33 -25 -45 -7 -13 -16 -25 -19 -28 -3 -3
-25 -39 -50 -80 -56 -96 -62 -102 -99 -96 -16 2 -32 0 -36 -5 -3 -5 -13 -5
-24 1 -10 6 -21 6 -24 1 -3 -4 -24 -5 -46 -1 -22 4 -43 3 -46 -1 -3 -5 -14 -4
-25 1 -13 8 -19 7 -19 0 0 -6 -5 -8 -11 -5 -9 6 -105 9 -134 5 -5 -1 -31 -1
-56 0 -48 1 -122 -23 -148 -49 -42 -42 -59 -88 -55 -147 4 -78 17 -154 28
-172 4 -8 13 -42 20 -82 2 -8 8 -28 15 -45 6 -16 17 -43 23 -60 19 -48 66
-113 88 -120 36 -12 10182 -7 10213 4 15 6 27 15 27 20 0 5 6 16 13 23 21 20
104 238 91 238 -2 0 3 17 10 38 7 20 12 47 11 60 -1 13 1 25 5 27 4 2 8 33 9
69 2 63 -5 85 -39 129 -27 33 -135 83 -146 66 -3 -5 -14 -5 -25 1 -13 8 -19 7
-19 0 0 -6 -5 -8 -11 -5 -9 6 -102 9 -134 5 -5 -1 -50 0 -100 1 -49 1 -101 1
-115 0 -56 -3 -64 -1 -76 11 -11 11 -198 308 -245 388 -7 14 -16 27 -19 30 -3
3 -11 15 -17 28 -27 47 -38 66 -46 76 -17 24 -366 587 -450 726 -21 36 -52 84
-68 107 -16 23 -29 46 -29 52 0 6 -4 11 -10 11 -5 0 -10 5 -10 11 0 6 -20 42
-45 80 -25 38 -45 74 -45 80 0 5 -7 12 -15 15 -8 4 -15 11 -15 16 0 6 -21 44
-47 86 -27 42 -52 84 -58 93 -16 28 -73 120 -113 184 -21 33 -90 143 -152 245
-63 102 -116 187 -119 190 -4 3 -17 25 -30 50 -14 25 -27 47 -30 50 -3 3 -13
17 -21 31 -8 14 -87 142 -175 283 -194 312 -204 327 -212 346 -4 8 -9 17 -12
20 -4 3 -24 34 -45 70 -22 36 -58 94 -81 130 -87 137 -175 280 -175 285 0 3
-5 11 -11 18 -10 12 -231 366 -243 389 -3 7 -19 32 -34 56 -15 23 -54 86 -86
140 -33 53 -63 99 -68 100 -4 2 -8 7 -8 12 0 9 -66 120 -110 185 -15 22 -30
47 -34 55 -3 8 -38 65 -76 125 -75 119 -146 233 -170 275 -34 59 -85 135 -92
138 -5 2 -8 9 -8 16 0 7 -13 31 -29 53 -16 22 -37 55 -46 73 -9 18 -21 38 -26
44 -9 11 -158 249 -185 296 -8 14 -23 39 -34 55 -11 17 -23 37 -27 45 -4 8
-14 26 -23 40 -37 54 -96 146 -106 165 -30 56 -40 72 -72 110 -7 8 -10 15 -8
15 3 0 -26 50 -64 110 -39 61 -70 115 -70 120 0 6 -4 10 -10 10 -5 0 -10 7
-10 15 0 8 -4 15 -10 15 -5 0 -10 7 -10 15 0 8 -4 15 -10 15 -5 0 -10 9 -10
20 0 11 -4 20 -8 20 -5 0 -18 18 -31 40 -12 22 -54 90 -92 151 -38 60 -69 114
-69 119 0 6 -3 10 -8 10 -4 0 -22 26 -40 58 -18 31 -57 95 -87 142 -30 47 -58
92 -62 100 -3 8 -10 17 -14 20 -3 3 11 34 32 70 21 36 43 74 49 85 6 11 16 29
23 40 7 11 32 54 56 95 24 41 51 83 59 93 8 9 11 17 7 17 -4 0 -1 8 8 18 8 9
22 28 29 42 7 14 45 78 83 142 39 65 79 133 90 152 11 19 39 67 63 107 23 39
42 76 42 80 0 5 4 9 8 9 5 0 19 21 32 48 13 26 26 49 29 52 3 3 13 19 21 35 8
17 19 35 23 40 4 6 44 71 87 145 43 74 84 140 89 147 6 7 11 15 11 19 0 4 18
36 41 71 62 98 73 141 54 207 -24 87 -142 144 -242 117 -41 -11 -127 -77 -118
-91 3 -5 2 -10 -3 -12 -11 -4 -97 -151 -94 -160 1 -5 -2 -8 -8 -8 -5 0 -10 -7
-10 -15 0 -8 -5 -15 -11 -15 -5 0 -8 -4 -5 -9 3 -5 -1 -11 -9 -15 -8 -3 -15
-10 -15 -16 0 -14 -142 -254 -152 -258 -5 -2 -8 -9 -8 -15 0 -7 -18 -40 -40
-75 -22 -34 -40 -66 -40 -71 0 -4 -11 -21 -25 -37 -13 -15 -22 -30 -20 -32 2
-2 -16 -35 -41 -72 -24 -38 -44 -73 -44 -79 0 -6 -4 -11 -9 -11 -5 0 -13 -10
-18 -22 -13 -36 -247 -428 -255 -428 -5 0 -8 6 -8 13 0 6 -16 34 -35 61 -19
27 -35 54 -35 59 0 6 -11 25 -25 42 -13 18 -22 35 -20 37 3 3 -4 13 -15 23
-11 10 -20 22 -20 26 0 8 -130 232 -147 254 -4 6 -18 28 -29 50 -12 22 -54 93
-93 158 -39 65 -71 121 -71 124 0 4 -6 14 -14 22 -13 16 -59 94 -80 138 -6 13
-14 23 -18 23 -5 0 -8 7 -8 15 0 8 -5 15 -12 15 -6 0 -8 3 -5 7 4 3 1 13 -6
22 -8 9 -49 76 -92 150 -43 74 -86 142 -96 152 -50 50 -161 71 -226 43z"/>
</g>
</svg>
