<svg width="15" height="16" viewBox="0 0 15 16" fill="none" xmlns="http://www.w3.org/2000/svg">
<path d="M11.8639 7.09251V3.92585C11.8639 3.89918 11.8406 3.87785 11.8113 3.87785H9.68308C9.65385 3.87785 9.63046 3.85651 9.63046 3.83118V2.30585C9.63046 2.28185 9.60707 2.26052 9.5793 2.26052H8.68181C8.65112 2.26052 8.62773 2.23918 8.62773 2.21118V0.139182C8.62773 0.112515 8.60434 0.0911812 8.57657 0.0911812H5.97474C5.94697 0.0911812 5.92358 0.112515 5.92358 0.139182V2.21118C5.92358 2.23918 5.90019 2.26052 5.87096 2.26052H4.90477C4.877 2.26052 4.85361 2.28185 4.85361 2.30585V3.83118C4.85361 3.85651 4.83022 3.87785 4.80099 3.87785H2.59674C2.56751 3.87785 2.54412 3.89918 2.54412 3.92585V7.21385C2.54412 7.22985 2.53535 7.24585 2.52073 7.25251L0.598591 8.45518C0.579589 8.46718 0.570818 8.48851 0.578126 8.50718L0.851465 9.30185L2.32194 13.5618C2.32632 13.5738 2.33656 13.5858 2.34971 13.5912L4.17538 14.3725L6.9877 15.5818C6.99501 15.5845 7.00232 15.5858 7.00962 15.5858H7.57092C7.57969 15.5858 7.587 15.5845 7.59431 15.5818L12.2469 13.5912C12.263 13.5858 12.2703 13.5738 12.2747 13.5618L14.0214 8.50718C14.0273 8.48851 14.0185 8.46718 13.9995 8.45518L11.8873 7.13118C11.8727 7.12318 11.8639 7.10851 11.8639 7.09251Z" fill="#3D76BB"/>
</svg>
