<svg width="18" height="18" viewBox="0 0 18 18" fill="none" xmlns="http://www.w3.org/2000/svg">
<path fill-rule="evenodd" clip-rule="evenodd" d="M8.91667 0.5C4.26815 0.5 0.5 4.26815 0.5 8.91667C0.5 13.5652 4.26815 17.3333 8.91667 17.3333C13.5652 17.3333 17.3333 13.5652 17.3333 8.91667C17.3333 4.26815 13.5652 0.5 8.91667 0.5ZM1.5 8.91667C1.5 4.82043 4.82043 1.5 8.91667 1.5C13.0129 1.5 16.3333 4.82043 16.3333 8.91667C16.3333 13.0129 13.0129 16.3333 8.91667 16.3333C4.82043 16.3333 1.5 13.0129 1.5 8.91667ZM9.27006 6.18819C9.07479 5.99293 8.75821 5.99293 8.56295 6.18819L5.00045 9.75069C4.80519 9.94596 4.80519 10.2625 5.00045 10.4578C5.19571 10.6531 5.5123 10.6531 5.70756 10.4578L8.9165 7.24885L12.1255 10.4578C12.3207 10.6531 12.6373 10.6531 12.8326 10.4578C13.0278 10.2625 13.0278 9.94596 12.8326 9.75069L9.27006 6.18819Z" fill="#3CBA94"/>
</svg>
