<svg width="34" height="30" viewBox="0 0 34 30" fill="none" xmlns="http://www.w3.org/2000/svg">
<path fill-rule="evenodd" clip-rule="evenodd" d="M21.5607 9.43934C20.9749 8.85355 20.0251 8.85355 19.4393 9.43934C18.8536 10.0251 18.8536 10.9749 19.4393 11.5607L22.8787 15L19.4393 18.4393C18.8536 19.0251 18.8536 19.9749 19.4393 20.5607C20.0251 21.1464 20.9749 21.1464 21.5607 20.5607L25 17.1213L28.4393 20.5607C29.0251 21.1464 29.9749 21.1464 30.5607 20.5607C31.1464 19.9749 31.1464 19.0251 30.5607 18.4393L27.1213 15L30.5607 11.5607C31.1464 10.9749 31.1464 10.0251 30.5607 9.43934C29.9749 8.85355 29.0251 8.85355 28.4393 9.43934L25 12.8787L21.5607 9.43934Z" fill="#3CBA94"/>
<path fill-rule="evenodd" clip-rule="evenodd" d="M8.20183 10.5864L12.9198 3.79488V25.6757L8.20183 18.8842C7.92149 18.4806 7.46127 18.2399 6.96991 18.2399H4.0457C4.02594 18.2112 4 18.1536 4 18.0717V11.3989C4 11.317 4.02594 11.2594 4.0457 11.2307H6.96991C7.46127 11.2307 7.92149 10.99 8.20183 10.5864ZM14.146 0.163171C13.5013 -0.0774153 12.7957 -0.050372 12.1725 0.233823C11.6057 0.492317 11.1667 0.934406 10.8911 1.45677L6.1855 8.23066H3.98997C3.13876 8.23066 2.36188 8.61073 1.81766 9.22006C1.2784 9.82384 1 10.6099 1 11.3989V18.0717C1 18.8607 1.2784 19.6468 1.81766 20.2505C2.36188 20.8599 3.13876 21.2399 3.98997 21.2399H6.1855L10.8911 28.0138C11.1667 28.5362 11.6057 28.9783 12.1725 29.2368C12.7957 29.521 13.5013 29.548 14.146 29.3074C14.7847 29.0691 15.2841 28.5996 15.5887 28.0313C15.871 27.5046 15.982 26.9043 15.9198 26.3194V3.15116C15.982 2.56625 15.871 1.966 15.5887 1.43925C15.2841 0.871013 14.7847 0.401533 14.146 0.163171Z" fill="#3CBA94"/>
</svg>
